<svg width="1200" height="800" viewBox="0 0 1200 800" fill="none" xmlns="http://www.w3.org/2000/svg">
  <rect width="1200" height="800" rx="36" fill="#EDF5E9"/>
  <path d="M168 618L314 172L520 260L702 132L900 226L1032 608L838 680L658 562L468 646L168 618Z" fill="#C9E1B8"/>
  <path d="M252 566L384 294L524 346L672 248L820 314L914 554L804 600L654 518L508 578L252 566Z" fill="#97C58C"/>
  <path d="M318 472C406 454 470 384 556 362C646 340 730 366 842 444" stroke="#2E6D51" stroke-width="18" stroke-linecap="round"/>
  <circle cx="330" cy="472" r="28" fill="#D74B4B"/>
  <circle cx="560" cy="366" r="28" fill="#D74B4B"/>
  <circle cx="838" cy="444" r="28" fill="#D74B4B"/>
  <rect x="106" y="106" width="220" height="120" rx="24" fill="#FFFFFF"/>
  <rect x="146" y="144" width="140" height="18" rx="9" fill="#2E6D51"/>
  <rect x="146" y="180" width="100" height="18" rx="9" fill="#90A86F"/>
</svg>
